<?xml version="1.0" standalone="no"?><svg xmlns="http://www.w3.org/2000/svg" viewBox="0 0 1440 320">
    <path fill="#4958A3" fill-opacity="1" d="M0,256L30,224C60,192,120,128,180,90.7C240,53,300,43,360,53.3C420,64,480,96,540,128C600,160,660,192,720,197.3C780,203,840,181,900,149.3C960,117,1020,75,1080,53.3C1140,32,1200,32,1260,37.3C1320,43,1380,53,1410,58.7L1440,64L1440,320L1410,320C1380,320,1320,320,1260,320C1200,320,1140,320,1080,320C1020,320,960,320,900,320C840,320,780,320,720,320C660,320,600,320,540,320C480,320,420,320,360,320C300,320,240,320,180,320C120,320,60,320,30,320L0,320Z"></path>
</svg>